A renowned actress (Ellen Barkin) abandons her successful career for a secluded life in the hills. But before long, she begins to fear she has only lived through the characters she has played. Reality becomes inseparable from unhinged obsessions in a hallucinatory struggle to reclaim herself. With a tour de force by Barkin, Cam ArcherΓÇÖs (Wild Tigers I Have Known) confirms him as one of the most distinct voices in American cinema.

______________________________________

Rip Specs:

DVD Rip

Format : AVI
Format/Info : Audio Video Interleave
File size : 1.37 GiB
Duration : 1h 30mn
Overall bit rate : 2 159 Kbps

Video
ID : 0
Format : MPEG-4 Visual
Format profile : Advanced Simple@L5
Format settings, BVOP : 1
Format settings, QPel : No
Format settings, GMC : No warppoints
Format settings, Matrix : Default (MPEG)
Codec ID : XVID
Codec ID/Hint : XviD
Duration : 1h 30mn
Bit rate : 1 958 Kbps
Width : 720 pixels
Height : 384 pixels
Display aspect ratio : 1.875
Frame rate : 25.000 fps
Color space : YUV
Chroma subsampling : 4:2:0
Bit depth : 8 bits
Scan type : Progressive
Compression mode : Lossy
Bits/(Pixel*Frame) : 0.283
Stream size : 1.24 GiB (91%)
Writing library : XviD 1.2.1 (UTC 2008-12-04)

Audio
ID : 1
Format : AC-3
Format/Info : Audio Coding 3
Mode extension : CM (complete main)
Codec ID : 2000
Duration : 1h 30mn
Bit rate mode : Constant
Bit rate : 192 Kbps
Channel(s) : 2 channels
Channel positions : Front: L R
Sampling rate : 48.0 KHz
Bit depth : 16 bits
Compression mode : Lossy
Stream size : 125 MiB (9%)
Alignment : Split accross interleaves
Interleave, duration : 40 ms (1.00 video frame)
Interleave, preload duration : 500 ms 

